<mxfile host="app.diagrams.net" modified="2023-10-14T18:20:23.850Z" agent="Mozilla/5.0 (Windows NT 10.0; Win64; x64) AppleWebKit/537.36 (KHTML, like Gecko) Chrome/118.0.0.0 Safari/537.36" etag="tNDPrEdx3dw8cz7fRLKQ" version="22.0.4" type="device">
  <diagram name="Page-1" id="5d7acffa-a066-3a61-03fe-96351882024d">
    <mxGraphModel dx="922" dy="1910" grid="0" gridSize="10" guides="1" tooltips="1" connect="1" arrows="1" fold="1" page="1" pageScale="1" pageWidth="1100" pageHeight="850" background="#ffffff" math="0" shadow="0">
      <root>
        <mxCell id="0" />
        <mxCell id="1" parent="0" />
        <mxCell id="RSNTRJgo7_avWvgr4p4R-2" value="" style="swimlane;html=1;fontStyle=0;childLayout=stackLayout;horizontal=1;startSize=26;fillColor=#e0e0e0;horizontalStack=0;resizeParent=1;resizeLast=0;collapsible=1;marginBottom=0;swimlaneFillColor=#ffffff;align=center;rounded=1;shadow=0;comic=0;labelBackgroundColor=none;strokeWidth=1;fontFamily=Verdana;fontSize=12" vertex="1" parent="1">
          <mxGeometry x="1140" y="94" width="160" height="76" as="geometry" />
        </mxCell>
        <mxCell id="RSNTRJgo7_avWvgr4p4R-3" value="Процесс" style="text;html=1;strokeColor=none;fillColor=none;spacingLeft=4;spacingRight=4;whiteSpace=wrap;overflow=hidden;rotatable=0;points=[[0,0.5],[1,0.5]];portConstraint=eastwest;align=center;" vertex="1" parent="RSNTRJgo7_avWvgr4p4R-2">
          <mxGeometry y="26" width="160" height="44" as="geometry" />
        </mxCell>
        <mxCell id="RSNTRJgo7_avWvgr4p4R-4" value="Внешняя сущность" style="rounded=0;whiteSpace=wrap;html=1;" vertex="1" parent="1">
          <mxGeometry x="1160" y="200" width="120" height="60" as="geometry" />
        </mxCell>
        <mxCell id="RSNTRJgo7_avWvgr4p4R-8" value="Хранилище данных" style="html=1;dashed=0;whiteSpace=wrap;shape=mxgraph.dfd.dataStoreID;align=right;spacingLeft=3;points=[[0,0],[0.5,0],[1,0],[0,0.5],[1,0.5],[0,1],[0.5,1],[1,1]];" vertex="1" parent="1">
          <mxGeometry x="1150" y="280" width="150" height="30" as="geometry" />
        </mxCell>
        <mxCell id="RSNTRJgo7_avWvgr4p4R-9" style="edgeStyle=orthogonalEdgeStyle;html=1;labelBackgroundColor=none;startFill=0;startSize=8;endFill=1;endSize=8;fontFamily=Verdana;fontSize=12;" edge="1" parent="1">
          <mxGeometry relative="1" as="geometry">
            <mxPoint x="1310" y="350" as="targetPoint" />
            <mxPoint x="1150" y="350" as="sourcePoint" />
          </mxGeometry>
        </mxCell>
        <mxCell id="RSNTRJgo7_avWvgr4p4R-10" value="Сотрудник" style="rounded=0;whiteSpace=wrap;html=1;fontSize=16;" vertex="1" parent="1">
          <mxGeometry x="1510" y="37" width="120" height="60" as="geometry" />
        </mxCell>
        <mxCell id="RSNTRJgo7_avWvgr4p4R-11" value="Руководитель" style="rounded=0;whiteSpace=wrap;html=1;fontSize=16;" vertex="1" parent="1">
          <mxGeometry x="1173" y="468" width="120" height="60" as="geometry" />
        </mxCell>
        <mxCell id="RSNTRJgo7_avWvgr4p4R-12" value="Администратор" style="rounded=0;whiteSpace=wrap;html=1;fontSize=16;" vertex="1" parent="1">
          <mxGeometry x="1183" y="573" width="120" height="60" as="geometry" />
        </mxCell>
        <mxCell id="RSNTRJgo7_avWvgr4p4R-14" value="" style="swimlane;html=1;fontStyle=0;childLayout=stackLayout;horizontal=1;startSize=26;fillColor=#e0e0e0;horizontalStack=0;resizeParent=1;resizeLast=0;collapsible=1;marginBottom=0;swimlaneFillColor=#ffffff;align=center;rounded=1;shadow=0;comic=0;labelBackgroundColor=none;strokeWidth=1;fontFamily=Verdana;fontSize=16;" vertex="1" parent="1">
          <mxGeometry x="1790" y="20" width="160" height="76" as="geometry" />
        </mxCell>
        <mxCell id="RSNTRJgo7_avWvgr4p4R-15" value="Авторизация" style="text;html=1;strokeColor=none;fillColor=none;spacingLeft=4;spacingRight=4;whiteSpace=wrap;overflow=hidden;rotatable=0;points=[[0,0.5],[1,0.5]];portConstraint=eastwest;align=center;fontSize=16;" vertex="1" parent="RSNTRJgo7_avWvgr4p4R-14">
          <mxGeometry y="26" width="160" height="44" as="geometry" />
        </mxCell>
        <mxCell id="RSNTRJgo7_avWvgr4p4R-16" style="edgeStyle=orthogonalEdgeStyle;html=1;labelBackgroundColor=none;startFill=0;startSize=8;endFill=1;endSize=8;fontFamily=Verdana;fontSize=16;exitX=1;exitY=0.5;exitDx=0;exitDy=0;entryX=0;entryY=0.5;entryDx=0;entryDy=0;" edge="1" parent="1" source="RSNTRJgo7_avWvgr4p4R-10" target="RSNTRJgo7_avWvgr4p4R-15">
          <mxGeometry relative="1" as="geometry">
            <mxPoint x="1840" y="137" as="targetPoint" />
            <mxPoint x="1680" y="137" as="sourcePoint" />
          </mxGeometry>
        </mxCell>
        <mxCell id="RSNTRJgo7_avWvgr4p4R-18" value="Логин и пароль" style="text;html=1;align=center;verticalAlign=middle;resizable=0;points=[];autosize=1;strokeColor=none;fillColor=none;fontSize=16;" vertex="1" parent="1">
          <mxGeometry x="1640" y="38" width="132" height="31" as="geometry" />
        </mxCell>
        <mxCell id="RSNTRJgo7_avWvgr4p4R-54" style="edgeStyle=orthogonalEdgeStyle;rounded=0;orthogonalLoop=1;jettySize=auto;html=1;entryX=0;entryY=0.5;entryDx=0;entryDy=0;" edge="1" parent="1" source="RSNTRJgo7_avWvgr4p4R-20" target="RSNTRJgo7_avWvgr4p4R-23">
          <mxGeometry relative="1" as="geometry" />
        </mxCell>
        <mxCell id="RSNTRJgo7_avWvgr4p4R-20" value="Сотрудник" style="rounded=0;whiteSpace=wrap;html=1;fontSize=16;" vertex="1" parent="1">
          <mxGeometry x="1466" y="190" width="120" height="60" as="geometry" />
        </mxCell>
        <mxCell id="RSNTRJgo7_avWvgr4p4R-21" value="Отчеты" style="html=1;dashed=0;whiteSpace=wrap;shape=mxgraph.dfd.dataStoreID;align=right;spacingLeft=3;points=[[0,0],[0.5,0],[1,0],[0,0.5],[1,0.5],[0,1],[0.5,1],[1,1]];fontSize=16;" vertex="1" parent="1">
          <mxGeometry x="1762" y="370" width="100" height="30" as="geometry" />
        </mxCell>
        <mxCell id="RSNTRJgo7_avWvgr4p4R-22" value="" style="swimlane;html=1;fontStyle=0;childLayout=stackLayout;horizontal=1;startSize=26;fillColor=#e0e0e0;horizontalStack=0;resizeParent=1;resizeLast=0;collapsible=1;marginBottom=0;swimlaneFillColor=#ffffff;align=center;rounded=1;shadow=0;comic=0;labelBackgroundColor=none;strokeWidth=1;fontFamily=Verdana;fontSize=16;" vertex="1" parent="1">
          <mxGeometry x="1744" y="174" width="160" height="76" as="geometry" />
        </mxCell>
        <mxCell id="RSNTRJgo7_avWvgr4p4R-23" value="Загрузка отчетов" style="text;html=1;strokeColor=none;fillColor=none;spacingLeft=4;spacingRight=4;whiteSpace=wrap;overflow=hidden;rotatable=0;points=[[0,0.5],[1,0.5]];portConstraint=eastwest;align=center;fontSize=16;" vertex="1" parent="RSNTRJgo7_avWvgr4p4R-22">
          <mxGeometry y="26" width="160" height="44" as="geometry" />
        </mxCell>
        <mxCell id="RSNTRJgo7_avWvgr4p4R-24" value="" style="swimlane;html=1;fontStyle=0;childLayout=stackLayout;horizontal=1;startSize=26;fillColor=#e0e0e0;horizontalStack=0;resizeParent=1;resizeLast=0;collapsible=1;marginBottom=0;swimlaneFillColor=#ffffff;align=center;rounded=1;shadow=0;comic=0;labelBackgroundColor=none;strokeWidth=1;fontFamily=Verdana;fontSize=16;" vertex="1" parent="1">
          <mxGeometry x="2085" y="177" width="160" height="76" as="geometry" />
        </mxCell>
        <mxCell id="RSNTRJgo7_avWvgr4p4R-25" value="Редактирование отчета" style="text;html=1;strokeColor=none;fillColor=none;spacingLeft=4;spacingRight=4;whiteSpace=wrap;overflow=hidden;rotatable=0;points=[[0,0.5],[1,0.5]];portConstraint=eastwest;align=center;fontSize=16;" vertex="1" parent="RSNTRJgo7_avWvgr4p4R-24">
          <mxGeometry y="26" width="160" height="44" as="geometry" />
        </mxCell>
        <mxCell id="RSNTRJgo7_avWvgr4p4R-26" value="Отчеты" style="html=1;dashed=0;whiteSpace=wrap;shape=mxgraph.dfd.dataStoreID;align=right;spacingLeft=3;points=[[0,0],[0.5,0],[1,0],[0,0.5],[1,0.5],[0,1],[0.5,1],[1,1]];fontSize=16;" vertex="1" parent="1">
          <mxGeometry x="2844" y="205" width="100" height="30" as="geometry" />
        </mxCell>
        <mxCell id="RSNTRJgo7_avWvgr4p4R-27" value="" style="swimlane;html=1;fontStyle=0;childLayout=stackLayout;horizontal=1;startSize=26;fillColor=#e0e0e0;horizontalStack=0;resizeParent=1;resizeLast=0;collapsible=1;marginBottom=0;swimlaneFillColor=#ffffff;align=center;rounded=1;shadow=0;comic=0;labelBackgroundColor=none;strokeWidth=1;fontFamily=Verdana;fontSize=16;" vertex="1" parent="1">
          <mxGeometry x="2451" y="174" width="160" height="76" as="geometry" />
        </mxCell>
        <mxCell id="RSNTRJgo7_avWvgr4p4R-28" value="Сохранение отчетов" style="text;html=1;strokeColor=none;fillColor=none;spacingLeft=4;spacingRight=4;whiteSpace=wrap;overflow=hidden;rotatable=0;points=[[0,0.5],[1,0.5]];portConstraint=eastwest;align=center;fontSize=16;" vertex="1" parent="RSNTRJgo7_avWvgr4p4R-27">
          <mxGeometry y="26" width="160" height="44" as="geometry" />
        </mxCell>
        <mxCell id="RSNTRJgo7_avWvgr4p4R-50" style="edgeStyle=orthogonalEdgeStyle;rounded=0;orthogonalLoop=1;jettySize=auto;html=1;entryX=0;entryY=0.5;entryDx=0;entryDy=0;" edge="1" parent="1" source="RSNTRJgo7_avWvgr4p4R-29" target="RSNTRJgo7_avWvgr4p4R-49">
          <mxGeometry relative="1" as="geometry" />
        </mxCell>
        <mxCell id="RSNTRJgo7_avWvgr4p4R-29" value="" style="swimlane;html=1;fontStyle=0;childLayout=stackLayout;horizontal=1;startSize=26;fillColor=#e0e0e0;horizontalStack=0;resizeParent=1;resizeLast=0;collapsible=1;marginBottom=0;swimlaneFillColor=#ffffff;align=center;rounded=1;shadow=0;comic=0;labelBackgroundColor=none;strokeWidth=1;fontFamily=Verdana;fontSize=16;" vertex="1" parent="1">
          <mxGeometry x="2471" y="400" width="160" height="76" as="geometry" />
        </mxCell>
        <mxCell id="RSNTRJgo7_avWvgr4p4R-30" value="Генерация уведомлений" style="text;html=1;strokeColor=none;fillColor=none;spacingLeft=4;spacingRight=4;whiteSpace=wrap;overflow=hidden;rotatable=0;points=[[0,0.5],[1,0.5]];portConstraint=eastwest;align=center;fontSize=16;" vertex="1" parent="RSNTRJgo7_avWvgr4p4R-29">
          <mxGeometry y="26" width="160" height="44" as="geometry" />
        </mxCell>
        <mxCell id="RSNTRJgo7_avWvgr4p4R-31" value="" style="swimlane;html=1;fontStyle=0;childLayout=stackLayout;horizontal=1;startSize=26;fillColor=#e0e0e0;horizontalStack=0;resizeParent=1;resizeLast=0;collapsible=1;marginBottom=0;swimlaneFillColor=#ffffff;align=center;rounded=1;shadow=0;comic=0;labelBackgroundColor=none;strokeWidth=1;fontFamily=Verdana;fontSize=16;" vertex="1" parent="1">
          <mxGeometry x="2026" y="15.5" width="160" height="76" as="geometry" />
        </mxCell>
        <mxCell id="RSNTRJgo7_avWvgr4p4R-32" value="Загрузка уведомлений" style="text;html=1;strokeColor=none;fillColor=none;spacingLeft=4;spacingRight=4;whiteSpace=wrap;overflow=hidden;rotatable=0;points=[[0,0.5],[1,0.5]];portConstraint=eastwest;align=center;fontSize=16;" vertex="1" parent="RSNTRJgo7_avWvgr4p4R-31">
          <mxGeometry y="26" width="160" height="44" as="geometry" />
        </mxCell>
        <mxCell id="RSNTRJgo7_avWvgr4p4R-33" value="&lt;font style=&quot;font-size: 16px;&quot;&gt;Уведомления&lt;/font&gt;" style="html=1;dashed=0;whiteSpace=wrap;shape=mxgraph.dfd.dataStoreID;align=right;spacingLeft=3;points=[[0,0],[0.5,0],[1,0],[0,0.5],[1,0.5],[0,1],[0.5,1],[1,1]];fontSize=16;" vertex="1" parent="1">
          <mxGeometry x="2036" y="-184" width="140" height="30" as="geometry" />
        </mxCell>
        <mxCell id="RSNTRJgo7_avWvgr4p4R-34" style="edgeStyle=orthogonalEdgeStyle;html=1;labelBackgroundColor=none;startFill=0;startSize=8;endFill=1;endSize=8;fontFamily=Verdana;fontSize=16;exitX=0.5;exitY=1;exitDx=0;exitDy=0;entryX=0.5;entryY=0;entryDx=0;entryDy=0;" edge="1" parent="1" source="RSNTRJgo7_avWvgr4p4R-33" target="RSNTRJgo7_avWvgr4p4R-31">
          <mxGeometry relative="1" as="geometry">
            <mxPoint x="1874" y="20" as="targetPoint" />
            <mxPoint x="1889.2699999999998" y="-58.17000000000007" as="sourcePoint" />
          </mxGeometry>
        </mxCell>
        <mxCell id="RSNTRJgo7_avWvgr4p4R-35" value="&lt;font style=&quot;font-size: 16px;&quot;&gt;Уведомления&lt;br style=&quot;font-size: 16px;&quot;&gt;для конкретного&lt;br style=&quot;font-size: 16px;&quot;&gt;пользователя&lt;/font&gt;" style="text;html=1;align=center;verticalAlign=middle;resizable=0;points=[];autosize=1;strokeColor=none;fillColor=none;fontSize=16;" vertex="1" parent="1">
          <mxGeometry x="2138" y="-117" width="138" height="70" as="geometry" />
        </mxCell>
        <mxCell id="RSNTRJgo7_avWvgr4p4R-36" style="edgeStyle=orthogonalEdgeStyle;rounded=0;orthogonalLoop=1;jettySize=auto;html=1;" edge="1" parent="1" source="RSNTRJgo7_avWvgr4p4R-15" target="RSNTRJgo7_avWvgr4p4R-32">
          <mxGeometry relative="1" as="geometry" />
        </mxCell>
        <mxCell id="RSNTRJgo7_avWvgr4p4R-37" value="" style="swimlane;html=1;fontStyle=0;childLayout=stackLayout;horizontal=1;startSize=26;fillColor=#e0e0e0;horizontalStack=0;resizeParent=1;resizeLast=0;collapsible=1;marginBottom=0;swimlaneFillColor=#ffffff;align=center;rounded=1;shadow=0;comic=0;labelBackgroundColor=none;strokeWidth=1;fontFamily=Verdana;fontSize=16;" vertex="1" parent="1">
          <mxGeometry x="2352" y="15.5" width="160" height="76" as="geometry" />
        </mxCell>
        <mxCell id="RSNTRJgo7_avWvgr4p4R-38" value="Оповещение об уведомлениях" style="text;html=1;strokeColor=none;fillColor=none;spacingLeft=4;spacingRight=4;whiteSpace=wrap;overflow=hidden;rotatable=0;points=[[0,0.5],[1,0.5]];portConstraint=eastwest;align=center;fontSize=16;" vertex="1" parent="RSNTRJgo7_avWvgr4p4R-37">
          <mxGeometry y="26" width="160" height="44" as="geometry" />
        </mxCell>
        <mxCell id="RSNTRJgo7_avWvgr4p4R-39" style="edgeStyle=orthogonalEdgeStyle;rounded=0;orthogonalLoop=1;jettySize=auto;html=1;entryX=0;entryY=0.5;entryDx=0;entryDy=0;" edge="1" parent="1" source="RSNTRJgo7_avWvgr4p4R-32" target="RSNTRJgo7_avWvgr4p4R-38">
          <mxGeometry relative="1" as="geometry" />
        </mxCell>
        <mxCell id="RSNTRJgo7_avWvgr4p4R-40" value="&lt;font style=&quot;font-size: 16px;&quot;&gt;Уведомления&lt;br&gt;&lt;/font&gt;" style="text;html=1;align=center;verticalAlign=middle;resizable=0;points=[];autosize=1;strokeColor=none;fillColor=none;fontSize=16;" vertex="1" parent="1">
          <mxGeometry x="2216" y="20" width="118" height="31" as="geometry" />
        </mxCell>
        <mxCell id="RSNTRJgo7_avWvgr4p4R-41" style="edgeStyle=orthogonalEdgeStyle;rounded=0;orthogonalLoop=1;jettySize=auto;html=1;entryX=0.47;entryY=1.134;entryDx=0;entryDy=0;entryPerimeter=0;" edge="1" parent="1" source="RSNTRJgo7_avWvgr4p4R-21" target="RSNTRJgo7_avWvgr4p4R-23">
          <mxGeometry relative="1" as="geometry">
            <Array as="points">
              <mxPoint x="1812" y="307" />
              <mxPoint x="1816" y="307" />
              <mxPoint x="1816" y="250" />
            </Array>
          </mxGeometry>
        </mxCell>
        <mxCell id="RSNTRJgo7_avWvgr4p4R-42" value="&lt;span style=&quot;font-size: 16px;&quot;&gt;Отчеты&amp;nbsp;&lt;br&gt;сотрудника&lt;br&gt;&lt;/span&gt;" style="text;html=1;align=center;verticalAlign=middle;resizable=0;points=[];autosize=1;strokeColor=none;fillColor=none;" vertex="1" parent="1">
          <mxGeometry x="1819" y="280" width="102" height="50" as="geometry" />
        </mxCell>
        <mxCell id="RSNTRJgo7_avWvgr4p4R-43" style="edgeStyle=orthogonalEdgeStyle;rounded=0;orthogonalLoop=1;jettySize=auto;html=1;entryX=0;entryY=0.5;entryDx=0;entryDy=0;" edge="1" parent="1" source="RSNTRJgo7_avWvgr4p4R-23" target="RSNTRJgo7_avWvgr4p4R-25">
          <mxGeometry relative="1" as="geometry" />
        </mxCell>
        <mxCell id="RSNTRJgo7_avWvgr4p4R-44" value="&lt;font style=&quot;font-size: 16px;&quot;&gt;Конкретный&lt;br&gt;отчет&lt;br&gt;сотрудника&lt;br&gt;&lt;/font&gt;" style="text;html=1;align=center;verticalAlign=middle;resizable=0;points=[];autosize=1;strokeColor=none;fillColor=none;" vertex="1" parent="1">
          <mxGeometry x="1920" y="150" width="106" height="70" as="geometry" />
        </mxCell>
        <mxCell id="RSNTRJgo7_avWvgr4p4R-45" style="edgeStyle=orthogonalEdgeStyle;rounded=0;orthogonalLoop=1;jettySize=auto;html=1;entryX=0;entryY=0.5;entryDx=0;entryDy=0;" edge="1" parent="1" source="RSNTRJgo7_avWvgr4p4R-25" target="RSNTRJgo7_avWvgr4p4R-28">
          <mxGeometry relative="1" as="geometry" />
        </mxCell>
        <mxCell id="RSNTRJgo7_avWvgr4p4R-46" value="Отредактированный&lt;br&gt;отчет" style="text;html=1;align=center;verticalAlign=middle;resizable=0;points=[];autosize=1;strokeColor=none;fillColor=none;fontSize=16;" vertex="1" parent="1">
          <mxGeometry x="2270" y="170" width="170" height="50" as="geometry" />
        </mxCell>
        <mxCell id="RSNTRJgo7_avWvgr4p4R-47" style="edgeStyle=orthogonalEdgeStyle;rounded=0;orthogonalLoop=1;jettySize=auto;html=1;entryX=0;entryY=0.5;entryDx=0;entryDy=0;" edge="1" parent="1" source="RSNTRJgo7_avWvgr4p4R-28" target="RSNTRJgo7_avWvgr4p4R-26">
          <mxGeometry relative="1" as="geometry" />
        </mxCell>
        <mxCell id="RSNTRJgo7_avWvgr4p4R-48" value="Отредактированный&lt;br&gt;отчет" style="text;html=1;align=center;verticalAlign=middle;resizable=0;points=[];autosize=1;strokeColor=none;fillColor=none;fontSize=16;" vertex="1" parent="1">
          <mxGeometry x="2637" y="167" width="170" height="50" as="geometry" />
        </mxCell>
        <mxCell id="RSNTRJgo7_avWvgr4p4R-49" value="Уведомления" style="html=1;dashed=0;whiteSpace=wrap;shape=mxgraph.dfd.dataStoreID;align=right;spacingLeft=3;points=[[0,0],[0.5,0],[1,0],[0,0.5],[1,0.5],[0,1],[0.5,1],[1,1]];fontSize=16;" vertex="1" parent="1">
          <mxGeometry x="2798" y="410" width="142" height="30" as="geometry" />
        </mxCell>
        <mxCell id="RSNTRJgo7_avWvgr4p4R-51" value="&lt;span style=&quot;font-size: 16px;&quot;&gt;Новое&lt;br&gt;уведомление&lt;br&gt;&lt;/span&gt;" style="text;html=1;align=center;verticalAlign=middle;resizable=0;points=[];autosize=1;strokeColor=none;fillColor=none;" vertex="1" parent="1">
          <mxGeometry x="2651" y="370" width="117" height="50" as="geometry" />
        </mxCell>
        <mxCell id="RSNTRJgo7_avWvgr4p4R-52" style="edgeStyle=orthogonalEdgeStyle;rounded=0;orthogonalLoop=1;jettySize=auto;html=1;entryX=0;entryY=0.5;entryDx=0;entryDy=0;exitX=0.495;exitY=1.09;exitDx=0;exitDy=0;exitPerimeter=0;" edge="1" parent="1" source="RSNTRJgo7_avWvgr4p4R-25" target="RSNTRJgo7_avWvgr4p4R-30">
          <mxGeometry relative="1" as="geometry">
            <mxPoint x="2192" y="362.5" as="sourcePoint" />
            <mxPoint x="2398" y="359.5" as="targetPoint" />
            <Array as="points">
              <mxPoint x="2164" y="448" />
            </Array>
          </mxGeometry>
        </mxCell>
        <mxCell id="RSNTRJgo7_avWvgr4p4R-53" value="Кто и какой&lt;br&gt;отчет отредактировал" style="text;html=1;align=center;verticalAlign=middle;resizable=0;points=[];autosize=1;strokeColor=none;fillColor=none;fontSize=16;" vertex="1" parent="1">
          <mxGeometry x="2176" y="390" width="182" height="50" as="geometry" />
        </mxCell>
        <mxCell id="RSNTRJgo7_avWvgr4p4R-55" value="Желание работать&lt;br&gt;с отчетами" style="text;html=1;align=center;verticalAlign=middle;resizable=0;points=[];autosize=1;strokeColor=none;fillColor=none;fontSize=16;" vertex="1" parent="1">
          <mxGeometry x="1581" y="165" width="157" height="50" as="geometry" />
        </mxCell>
        <mxCell id="RSNTRJgo7_avWvgr4p4R-58" value="" style="swimlane;html=1;fontStyle=0;childLayout=stackLayout;horizontal=1;startSize=26;fillColor=#e0e0e0;horizontalStack=0;resizeParent=1;resizeLast=0;collapsible=1;marginBottom=0;swimlaneFillColor=#ffffff;align=center;rounded=1;shadow=0;comic=0;labelBackgroundColor=none;strokeWidth=1;fontFamily=Verdana;fontSize=16;" vertex="1" parent="1">
          <mxGeometry x="1720" y="846" width="160" height="76" as="geometry" />
        </mxCell>
        <mxCell id="RSNTRJgo7_avWvgr4p4R-59" value="Управление&lt;br&gt;задачами&lt;br&gt;" style="text;html=1;strokeColor=none;fillColor=none;spacingLeft=4;spacingRight=4;whiteSpace=wrap;overflow=hidden;rotatable=0;points=[[0,0.5],[1,0.5]];portConstraint=eastwest;align=center;fontSize=16;" vertex="1" parent="RSNTRJgo7_avWvgr4p4R-58">
          <mxGeometry y="26" width="160" height="44" as="geometry" />
        </mxCell>
        <mxCell id="RSNTRJgo7_avWvgr4p4R-61" value="" style="swimlane;html=1;fontStyle=0;childLayout=stackLayout;horizontal=1;startSize=26;fillColor=#e0e0e0;horizontalStack=0;resizeParent=1;resizeLast=0;collapsible=1;marginBottom=0;swimlaneFillColor=#ffffff;align=center;rounded=1;shadow=0;comic=0;labelBackgroundColor=none;strokeWidth=1;fontFamily=Verdana;fontSize=16;" vertex="1" parent="1">
          <mxGeometry x="1720" y="1040" width="160" height="76" as="geometry" />
        </mxCell>
        <mxCell id="RSNTRJgo7_avWvgr4p4R-62" value="Загрузка&lt;br&gt;задач" style="text;html=1;strokeColor=none;fillColor=none;spacingLeft=4;spacingRight=4;whiteSpace=wrap;overflow=hidden;rotatable=0;points=[[0,0.5],[1,0.5]];portConstraint=eastwest;align=center;fontSize=16;" vertex="1" parent="RSNTRJgo7_avWvgr4p4R-61">
          <mxGeometry y="26" width="160" height="44" as="geometry" />
        </mxCell>
        <mxCell id="RSNTRJgo7_avWvgr4p4R-63" value="Задачи" style="html=1;dashed=0;whiteSpace=wrap;shape=mxgraph.dfd.dataStoreID;align=right;spacingLeft=3;points=[[0,0],[0.5,0],[1,0],[0,0.5],[1,0.5],[0,1],[0.5,1],[1,1]];fontSize=16;" vertex="1" parent="1">
          <mxGeometry x="1720" y="1207" width="142" height="30" as="geometry" />
        </mxCell>
        <mxCell id="RSNTRJgo7_avWvgr4p4R-64" style="edgeStyle=orthogonalEdgeStyle;rounded=0;orthogonalLoop=1;jettySize=auto;html=1;entryX=0.478;entryY=1.126;entryDx=0;entryDy=0;entryPerimeter=0;" edge="1" parent="1" source="RSNTRJgo7_avWvgr4p4R-63" target="RSNTRJgo7_avWvgr4p4R-62">
          <mxGeometry relative="1" as="geometry">
            <Array as="points">
              <mxPoint x="1800" y="1149" />
              <mxPoint x="1796" y="1149" />
            </Array>
          </mxGeometry>
        </mxCell>
        <mxCell id="RSNTRJgo7_avWvgr4p4R-65" value="&lt;span style=&quot;font-size: 16px;&quot;&gt;Задачи&lt;br style=&quot;font-size: 16px;&quot;&gt;пользователя&lt;br style=&quot;font-size: 16px;&quot;&gt;&lt;/span&gt;" style="text;html=1;align=center;verticalAlign=middle;resizable=0;points=[];autosize=1;strokeColor=none;fillColor=none;fontSize=16;" vertex="1" parent="1">
          <mxGeometry x="1822" y="1136" width="119" height="50" as="geometry" />
        </mxCell>
        <mxCell id="RSNTRJgo7_avWvgr4p4R-66" style="edgeStyle=orthogonalEdgeStyle;rounded=0;orthogonalLoop=1;jettySize=auto;html=1;entryX=0.523;entryY=1.163;entryDx=0;entryDy=0;entryPerimeter=0;" edge="1" parent="1" source="RSNTRJgo7_avWvgr4p4R-61" target="RSNTRJgo7_avWvgr4p4R-59">
          <mxGeometry relative="1" as="geometry">
            <Array as="points">
              <mxPoint x="1800" y="978" />
              <mxPoint x="1804" y="978" />
            </Array>
          </mxGeometry>
        </mxCell>
        <mxCell id="RSNTRJgo7_avWvgr4p4R-67" value="&lt;span style=&quot;font-size: 16px;&quot;&gt;Задачи&lt;br style=&quot;font-size: 16px;&quot;&gt;пользователя&lt;br style=&quot;font-size: 16px;&quot;&gt;&lt;/span&gt;" style="text;html=1;align=center;verticalAlign=middle;resizable=0;points=[];autosize=1;strokeColor=none;fillColor=none;fontSize=16;" vertex="1" parent="1">
          <mxGeometry x="1835" y="953" width="119" height="50" as="geometry" />
        </mxCell>
        <mxCell id="RSNTRJgo7_avWvgr4p4R-69" value="Задачи" style="html=1;dashed=0;whiteSpace=wrap;shape=mxgraph.dfd.dataStoreID;align=right;spacingLeft=3;points=[[0,0],[0.5,0],[1,0],[0,0.5],[1,0.5],[0,1],[0.5,1],[1,1]];fontSize=16;" vertex="1" parent="1">
          <mxGeometry x="2065" y="884" width="142" height="30" as="geometry" />
        </mxCell>
        <mxCell id="RSNTRJgo7_avWvgr4p4R-70" style="edgeStyle=orthogonalEdgeStyle;rounded=0;orthogonalLoop=1;jettySize=auto;html=1;entryX=0;entryY=0.5;entryDx=0;entryDy=0;" edge="1" parent="1" source="RSNTRJgo7_avWvgr4p4R-59" target="RSNTRJgo7_avWvgr4p4R-69">
          <mxGeometry relative="1" as="geometry" />
        </mxCell>
        <mxCell id="RSNTRJgo7_avWvgr4p4R-71" value="&lt;span style=&quot;font-size: 16px;&quot;&gt;Новый статус&lt;br&gt;задачи&lt;br style=&quot;font-size: 16px;&quot;&gt;&lt;/span&gt;" style="text;html=1;align=center;verticalAlign=middle;resizable=0;points=[];autosize=1;strokeColor=none;fillColor=none;fontSize=16;" vertex="1" parent="1">
          <mxGeometry x="1905" y="838" width="119" height="50" as="geometry" />
        </mxCell>
        <mxCell id="RSNTRJgo7_avWvgr4p4R-73" style="edgeStyle=orthogonalEdgeStyle;rounded=0;orthogonalLoop=1;jettySize=auto;html=1;entryX=0.506;entryY=1.058;entryDx=0;entryDy=0;entryPerimeter=0;" edge="1" parent="1" source="RSNTRJgo7_avWvgr4p4R-58" target="RSNTRJgo7_avWvgr4p4R-30">
          <mxGeometry relative="1" as="geometry">
            <Array as="points">
              <mxPoint x="1800" y="657" />
              <mxPoint x="2552" y="657" />
            </Array>
          </mxGeometry>
        </mxCell>
        <mxCell id="RSNTRJgo7_avWvgr4p4R-74" value="&lt;span style=&quot;font-size: 16px;&quot;&gt;Какое действие&lt;br&gt;Кто совершил&lt;br&gt;Задача и её новый статус&lt;br style=&quot;font-size: 16px;&quot;&gt;&lt;/span&gt;" style="text;html=1;align=center;verticalAlign=middle;resizable=0;points=[];autosize=1;strokeColor=none;fillColor=none;fontSize=16;" vertex="1" parent="1">
          <mxGeometry x="1943" y="586" width="210" height="70" as="geometry" />
        </mxCell>
        <mxCell id="RSNTRJgo7_avWvgr4p4R-75" value="" style="swimlane;html=1;fontStyle=0;childLayout=stackLayout;horizontal=1;startSize=26;fillColor=#e0e0e0;horizontalStack=0;resizeParent=1;resizeLast=0;collapsible=1;marginBottom=0;swimlaneFillColor=#ffffff;align=center;rounded=1;shadow=0;comic=0;labelBackgroundColor=none;strokeWidth=1;fontFamily=Verdana;fontSize=16;" vertex="1" parent="1">
          <mxGeometry x="2708" y="20" width="160" height="76" as="geometry" />
        </mxCell>
        <mxCell id="RSNTRJgo7_avWvgr4p4R-76" value="Просмотр&lt;br&gt;уведомлений" style="text;html=1;strokeColor=none;fillColor=none;spacingLeft=4;spacingRight=4;whiteSpace=wrap;overflow=hidden;rotatable=0;points=[[0,0.5],[1,0.5]];portConstraint=eastwest;align=center;fontSize=16;" vertex="1" parent="RSNTRJgo7_avWvgr4p4R-75">
          <mxGeometry y="26" width="160" height="44" as="geometry" />
        </mxCell>
        <mxCell id="RSNTRJgo7_avWvgr4p4R-79" value="&lt;font style=&quot;font-size: 16px;&quot;&gt;Уведомления&lt;/font&gt;" style="html=1;dashed=0;whiteSpace=wrap;shape=mxgraph.dfd.dataStoreID;align=right;spacingLeft=3;points=[[0,0],[0.5,0],[1,0],[0,0.5],[1,0.5],[0,1],[0.5,1],[1,1]];fontSize=16;" vertex="1" parent="1">
          <mxGeometry x="3026" y="53" width="140" height="30" as="geometry" />
        </mxCell>
        <mxCell id="RSNTRJgo7_avWvgr4p4R-80" style="edgeStyle=orthogonalEdgeStyle;rounded=0;orthogonalLoop=1;jettySize=auto;html=1;entryX=0;entryY=0.5;entryDx=0;entryDy=0;" edge="1" parent="1" source="RSNTRJgo7_avWvgr4p4R-38" target="RSNTRJgo7_avWvgr4p4R-76">
          <mxGeometry relative="1" as="geometry" />
        </mxCell>
        <mxCell id="RSNTRJgo7_avWvgr4p4R-81" value="&lt;font style=&quot;font-size: 16px;&quot;&gt;Уведомления&lt;br&gt;&lt;/font&gt;" style="text;html=1;align=center;verticalAlign=middle;resizable=0;points=[];autosize=1;strokeColor=none;fillColor=none;fontSize=16;" vertex="1" parent="1">
          <mxGeometry x="2551" y="15.5" width="118" height="31" as="geometry" />
        </mxCell>
        <mxCell id="RSNTRJgo7_avWvgr4p4R-82" style="edgeStyle=orthogonalEdgeStyle;rounded=0;orthogonalLoop=1;jettySize=auto;html=1;entryX=0;entryY=0.5;entryDx=0;entryDy=0;" edge="1" parent="1" source="RSNTRJgo7_avWvgr4p4R-76" target="RSNTRJgo7_avWvgr4p4R-79">
          <mxGeometry relative="1" as="geometry" />
        </mxCell>
        <mxCell id="RSNTRJgo7_avWvgr4p4R-83" value="&lt;font style=&quot;font-size: 16px;&quot;&gt;Уведомления&lt;br&gt;для удаления&lt;br&gt;&lt;/font&gt;" style="text;html=1;align=center;verticalAlign=middle;resizable=0;points=[];autosize=1;strokeColor=none;fillColor=none;fontSize=16;" vertex="1" parent="1">
          <mxGeometry x="2887" y="10.5" width="120" height="50" as="geometry" />
        </mxCell>
        <mxCell id="RSNTRJgo7_avWvgr4p4R-87" style="edgeStyle=orthogonalEdgeStyle;rounded=0;orthogonalLoop=1;jettySize=auto;html=1;entryX=0;entryY=0.5;entryDx=0;entryDy=0;" edge="1" parent="1" source="RSNTRJgo7_avWvgr4p4R-84" target="RSNTRJgo7_avWvgr4p4R-86">
          <mxGeometry relative="1" as="geometry" />
        </mxCell>
        <mxCell id="RSNTRJgo7_avWvgr4p4R-84" value="Сотрудник" style="rounded=0;whiteSpace=wrap;html=1;fontSize=16;" vertex="1" parent="1">
          <mxGeometry x="1352" y="1370" width="120" height="60" as="geometry" />
        </mxCell>
        <mxCell id="RSNTRJgo7_avWvgr4p4R-85" value="" style="swimlane;html=1;fontStyle=0;childLayout=stackLayout;horizontal=1;startSize=26;fillColor=#e0e0e0;horizontalStack=0;resizeParent=1;resizeLast=0;collapsible=1;marginBottom=0;swimlaneFillColor=#ffffff;align=center;rounded=1;shadow=0;comic=0;labelBackgroundColor=none;strokeWidth=1;fontFamily=Verdana;fontSize=16;" vertex="1" parent="1">
          <mxGeometry x="1672" y="1352" width="160" height="76" as="geometry" />
        </mxCell>
        <mxCell id="RSNTRJgo7_avWvgr4p4R-86" value="Создание отчета" style="text;html=1;strokeColor=none;fillColor=none;spacingLeft=4;spacingRight=4;whiteSpace=wrap;overflow=hidden;rotatable=0;points=[[0,0.5],[1,0.5]];portConstraint=eastwest;align=center;fontSize=16;" vertex="1" parent="RSNTRJgo7_avWvgr4p4R-85">
          <mxGeometry y="26" width="160" height="44" as="geometry" />
        </mxCell>
        <mxCell id="RSNTRJgo7_avWvgr4p4R-88" value="&lt;span style=&quot;font-size: 16px;&quot;&gt;Новый отчет&lt;br style=&quot;font-size: 16px;&quot;&gt;&lt;/span&gt;" style="text;html=1;align=center;verticalAlign=middle;resizable=0;points=[];autosize=1;strokeColor=none;fillColor=none;fontSize=16;" vertex="1" parent="1">
          <mxGeometry x="1505" y="1354" width="112" height="31" as="geometry" />
        </mxCell>
        <mxCell id="RSNTRJgo7_avWvgr4p4R-92" value="Отчеты" style="html=1;dashed=0;whiteSpace=wrap;shape=mxgraph.dfd.dataStoreID;align=right;spacingLeft=3;points=[[0,0],[0.5,0],[1,0],[0,0.5],[1,0.5],[0,1],[0.5,1],[1,1]];fontSize=16;" vertex="1" parent="1">
          <mxGeometry x="2020" y="1385" width="142" height="30" as="geometry" />
        </mxCell>
        <mxCell id="RSNTRJgo7_avWvgr4p4R-93" style="edgeStyle=orthogonalEdgeStyle;rounded=0;orthogonalLoop=1;jettySize=auto;html=1;entryX=0;entryY=0.5;entryDx=0;entryDy=0;" edge="1" parent="1" source="RSNTRJgo7_avWvgr4p4R-86" target="RSNTRJgo7_avWvgr4p4R-92">
          <mxGeometry relative="1" as="geometry" />
        </mxCell>
        <mxCell id="RSNTRJgo7_avWvgr4p4R-94" value="&lt;span style=&quot;font-size: 16px;&quot;&gt;Новый отчет&lt;br&gt;для сохранения&lt;br style=&quot;font-size: 16px;&quot;&gt;&lt;/span&gt;" style="text;html=1;align=center;verticalAlign=middle;resizable=0;points=[];autosize=1;strokeColor=none;fillColor=none;fontSize=16;" vertex="1" parent="1">
          <mxGeometry x="1858" y="1343" width="137" height="50" as="geometry" />
        </mxCell>
        <mxCell id="RSNTRJgo7_avWvgr4p4R-95" value="Сотрудник" style="rounded=0;whiteSpace=wrap;html=1;fontSize=16;" vertex="1" parent="1">
          <mxGeometry x="1365.5" y="1793" width="120" height="60" as="geometry" />
        </mxCell>
        <mxCell id="RSNTRJgo7_avWvgr4p4R-114" style="edgeStyle=orthogonalEdgeStyle;rounded=0;orthogonalLoop=1;jettySize=auto;html=1;entryX=0.5;entryY=1;entryDx=0;entryDy=0;" edge="1" parent="1" source="RSNTRJgo7_avWvgr4p4R-96" target="RSNTRJgo7_avWvgr4p4R-112">
          <mxGeometry relative="1" as="geometry" />
        </mxCell>
        <mxCell id="RSNTRJgo7_avWvgr4p4R-96" value="" style="swimlane;html=1;fontStyle=0;childLayout=stackLayout;horizontal=1;startSize=26;fillColor=#e0e0e0;horizontalStack=0;resizeParent=1;resizeLast=0;collapsible=1;marginBottom=0;swimlaneFillColor=#ffffff;align=center;rounded=1;shadow=0;comic=0;labelBackgroundColor=none;strokeWidth=1;fontFamily=Verdana;fontSize=16;" vertex="1" parent="1">
          <mxGeometry x="1794.5" y="1788" width="160" height="76" as="geometry" />
        </mxCell>
        <mxCell id="RSNTRJgo7_avWvgr4p4R-97" value="Создание запроса на отпуск" style="text;html=1;strokeColor=none;fillColor=none;spacingLeft=4;spacingRight=4;whiteSpace=wrap;overflow=hidden;rotatable=0;points=[[0,0.5],[1,0.5]];portConstraint=eastwest;align=center;fontSize=16;" vertex="1" parent="RSNTRJgo7_avWvgr4p4R-96">
          <mxGeometry y="26" width="160" height="44" as="geometry" />
        </mxCell>
        <mxCell id="RSNTRJgo7_avWvgr4p4R-98" value="" style="swimlane;html=1;fontStyle=0;childLayout=stackLayout;horizontal=1;startSize=26;fillColor=#e0e0e0;horizontalStack=0;resizeParent=1;resizeLast=0;collapsible=1;marginBottom=0;swimlaneFillColor=#ffffff;align=center;rounded=1;shadow=0;comic=0;labelBackgroundColor=none;strokeWidth=1;fontFamily=Verdana;fontSize=16;" vertex="1" parent="1">
          <mxGeometry x="1547.5" y="1791" width="160" height="76" as="geometry" />
        </mxCell>
        <mxCell id="RSNTRJgo7_avWvgr4p4R-99" value="Работа с отпусками" style="text;html=1;strokeColor=none;fillColor=none;spacingLeft=4;spacingRight=4;whiteSpace=wrap;overflow=hidden;rotatable=0;points=[[0,0.5],[1,0.5]];portConstraint=eastwest;align=center;fontSize=16;" vertex="1" parent="RSNTRJgo7_avWvgr4p4R-98">
          <mxGeometry y="26" width="160" height="44" as="geometry" />
        </mxCell>
        <mxCell id="RSNTRJgo7_avWvgr4p4R-100" value="Отпуска" style="html=1;dashed=0;whiteSpace=wrap;shape=mxgraph.dfd.dataStoreID;align=right;spacingLeft=3;points=[[0,0],[0.5,0],[1,0],[0,0.5],[1,0.5],[0,1],[0.5,1],[1,1]];fontSize=16;" vertex="1" parent="1">
          <mxGeometry x="1543.5" y="1946" width="142" height="30" as="geometry" />
        </mxCell>
        <mxCell id="RSNTRJgo7_avWvgr4p4R-101" style="edgeStyle=orthogonalEdgeStyle;rounded=0;orthogonalLoop=1;jettySize=auto;html=1;entryX=0.463;entryY=1.11;entryDx=0;entryDy=0;entryPerimeter=0;" edge="1" parent="1" source="RSNTRJgo7_avWvgr4p4R-100" target="RSNTRJgo7_avWvgr4p4R-99">
          <mxGeometry relative="1" as="geometry">
            <Array as="points">
              <mxPoint x="1614.5" y="1904" />
              <mxPoint x="1621.5" y="1904" />
            </Array>
          </mxGeometry>
        </mxCell>
        <mxCell id="RSNTRJgo7_avWvgr4p4R-102" value="&lt;span style=&quot;font-size: 16px;&quot;&gt;История запросов&lt;br&gt;на отпуск&lt;br style=&quot;font-size: 16px;&quot;&gt;&lt;/span&gt;" style="text;html=1;align=center;verticalAlign=middle;resizable=0;points=[];autosize=1;strokeColor=none;fillColor=none;fontSize=16;" vertex="1" parent="1">
          <mxGeometry x="1617.5" y="1884" width="153" height="50" as="geometry" />
        </mxCell>
        <mxCell id="RSNTRJgo7_avWvgr4p4R-104" style="edgeStyle=orthogonalEdgeStyle;rounded=0;orthogonalLoop=1;jettySize=auto;html=1;entryX=0;entryY=0.5;entryDx=0;entryDy=0;" edge="1" parent="1" source="RSNTRJgo7_avWvgr4p4R-99" target="RSNTRJgo7_avWvgr4p4R-97">
          <mxGeometry relative="1" as="geometry" />
        </mxCell>
        <mxCell id="RSNTRJgo7_avWvgr4p4R-105" value="Сотрудник" style="rounded=0;whiteSpace=wrap;html=1;fontSize=16;" vertex="1" parent="1">
          <mxGeometry x="1814.5" y="1927" width="120" height="60" as="geometry" />
        </mxCell>
        <mxCell id="RSNTRJgo7_avWvgr4p4R-106" style="edgeStyle=orthogonalEdgeStyle;rounded=0;orthogonalLoop=1;jettySize=auto;html=1;entryX=0.515;entryY=1.019;entryDx=0;entryDy=0;entryPerimeter=0;" edge="1" parent="1" source="RSNTRJgo7_avWvgr4p4R-105" target="RSNTRJgo7_avWvgr4p4R-97">
          <mxGeometry relative="1" as="geometry" />
        </mxCell>
        <mxCell id="RSNTRJgo7_avWvgr4p4R-107" value="&lt;span style=&quot;font-size: 16px;&quot;&gt;Параметры нового&lt;br&gt;отпуска&lt;br style=&quot;font-size: 16px;&quot;&gt;&lt;/span&gt;" style="text;html=1;align=center;verticalAlign=middle;resizable=0;points=[];autosize=1;strokeColor=none;fillColor=none;fontSize=16;" vertex="1" parent="1">
          <mxGeometry x="1882.5" y="1870" width="157" height="50" as="geometry" />
        </mxCell>
        <mxCell id="RSNTRJgo7_avWvgr4p4R-108" value="Отпуска" style="html=1;dashed=0;whiteSpace=wrap;shape=mxgraph.dfd.dataStoreID;align=right;spacingLeft=3;points=[[0,0],[0.5,0],[1,0],[0,0.5],[1,0.5],[0,1],[0.5,1],[1,1]];fontSize=16;" vertex="1" parent="1">
          <mxGeometry x="2092.5" y="1821" width="142" height="30" as="geometry" />
        </mxCell>
        <mxCell id="RSNTRJgo7_avWvgr4p4R-109" style="edgeStyle=orthogonalEdgeStyle;rounded=0;orthogonalLoop=1;jettySize=auto;html=1;entryX=0;entryY=0.5;entryDx=0;entryDy=0;" edge="1" parent="1" source="RSNTRJgo7_avWvgr4p4R-97" target="RSNTRJgo7_avWvgr4p4R-108">
          <mxGeometry relative="1" as="geometry" />
        </mxCell>
        <mxCell id="RSNTRJgo7_avWvgr4p4R-110" value="&lt;span style=&quot;font-size: 16px;&quot;&gt;Новый запрос&lt;br&gt;на отпуск&lt;br style=&quot;font-size: 16px;&quot;&gt;&lt;/span&gt;" style="text;html=1;align=center;verticalAlign=middle;resizable=0;points=[];autosize=1;strokeColor=none;fillColor=none;fontSize=16;" vertex="1" parent="1">
          <mxGeometry x="1958.5" y="1788" width="123" height="50" as="geometry" />
        </mxCell>
        <mxCell id="RSNTRJgo7_avWvgr4p4R-112" value="" style="swimlane;html=1;fontStyle=0;childLayout=stackLayout;horizontal=1;startSize=26;fillColor=#e0e0e0;horizontalStack=0;resizeParent=1;resizeLast=0;collapsible=1;marginBottom=0;swimlaneFillColor=#ffffff;align=center;rounded=1;shadow=0;comic=0;labelBackgroundColor=none;strokeWidth=1;fontFamily=Verdana;fontSize=16;" vertex="1" parent="1">
          <mxGeometry x="1794.5" y="1604" width="160" height="76" as="geometry" />
        </mxCell>
        <mxCell id="RSNTRJgo7_avWvgr4p4R-113" value="Генерация уведомлений" style="text;html=1;strokeColor=none;fillColor=none;spacingLeft=4;spacingRight=4;whiteSpace=wrap;overflow=hidden;rotatable=0;points=[[0,0.5],[1,0.5]];portConstraint=eastwest;align=center;fontSize=16;" vertex="1" parent="RSNTRJgo7_avWvgr4p4R-112">
          <mxGeometry y="26" width="160" height="44" as="geometry" />
        </mxCell>
        <mxCell id="RSNTRJgo7_avWvgr4p4R-115" value="&lt;span style=&quot;font-size: 16px;&quot;&gt;Кто сделал&lt;br&gt;Что сделал&lt;br style=&quot;font-size: 16px;&quot;&gt;&lt;/span&gt;" style="text;html=1;align=center;verticalAlign=middle;resizable=0;points=[];autosize=1;strokeColor=none;fillColor=none;fontSize=16;" vertex="1" parent="1">
          <mxGeometry x="1887" y="1706" width="102" height="50" as="geometry" />
        </mxCell>
        <mxCell id="RSNTRJgo7_avWvgr4p4R-116" value="Сотрудник" style="rounded=0;whiteSpace=wrap;html=1;fontSize=16;" vertex="1" parent="1">
          <mxGeometry x="1934.5" y="2081" width="120" height="60" as="geometry" />
        </mxCell>
        <mxCell id="RSNTRJgo7_avWvgr4p4R-120" value="" style="swimlane;html=1;fontStyle=0;childLayout=stackLayout;horizontal=1;startSize=26;fillColor=#e0e0e0;horizontalStack=0;resizeParent=1;resizeLast=0;collapsible=1;marginBottom=0;swimlaneFillColor=#ffffff;align=center;rounded=1;shadow=0;comic=0;labelBackgroundColor=none;strokeWidth=1;fontFamily=Verdana;fontSize=16;" vertex="1" parent="1">
          <mxGeometry x="1600" y="2063" width="160" height="76" as="geometry" />
        </mxCell>
        <mxCell id="RSNTRJgo7_avWvgr4p4R-121" value="Просмотр командировок" style="text;html=1;strokeColor=none;fillColor=none;spacingLeft=4;spacingRight=4;whiteSpace=wrap;overflow=hidden;rotatable=0;points=[[0,0.5],[1,0.5]];portConstraint=eastwest;align=center;fontSize=16;" vertex="1" parent="RSNTRJgo7_avWvgr4p4R-120">
          <mxGeometry y="26" width="160" height="44" as="geometry" />
        </mxCell>
        <mxCell id="RSNTRJgo7_avWvgr4p4R-122" value="Командировки" style="html=1;dashed=0;whiteSpace=wrap;shape=mxgraph.dfd.dataStoreID;align=right;spacingLeft=3;points=[[0,0],[0.5,0],[1,0],[0,0.5],[1,0.5],[0,1],[0.5,1],[1,1]];fontSize=16;" vertex="1" parent="1">
          <mxGeometry x="1596" y="2218" width="142" height="30" as="geometry" />
        </mxCell>
        <mxCell id="RSNTRJgo7_avWvgr4p4R-123" style="edgeStyle=orthogonalEdgeStyle;rounded=0;orthogonalLoop=1;jettySize=auto;html=1;entryX=0.463;entryY=1.11;entryDx=0;entryDy=0;entryPerimeter=0;" edge="1" parent="1" source="RSNTRJgo7_avWvgr4p4R-122" target="RSNTRJgo7_avWvgr4p4R-121">
          <mxGeometry relative="1" as="geometry">
            <Array as="points">
              <mxPoint x="1667" y="2176" />
              <mxPoint x="1674" y="2176" />
            </Array>
          </mxGeometry>
        </mxCell>
        <mxCell id="RSNTRJgo7_avWvgr4p4R-124" value="&lt;span style=&quot;font-size: 16px;&quot;&gt;История&amp;nbsp;&lt;br&gt;командировок&lt;br style=&quot;font-size: 16px;&quot;&gt;&lt;/span&gt;" style="text;html=1;align=center;verticalAlign=middle;resizable=0;points=[];autosize=1;strokeColor=none;fillColor=none;fontSize=16;" vertex="1" parent="1">
          <mxGeometry x="1685" y="2156" width="123" height="50" as="geometry" />
        </mxCell>
        <mxCell id="RSNTRJgo7_avWvgr4p4R-135" style="edgeStyle=orthogonalEdgeStyle;rounded=0;orthogonalLoop=1;jettySize=auto;html=1;entryX=0;entryY=0.5;entryDx=0;entryDy=0;" edge="1" parent="1" source="RSNTRJgo7_avWvgr4p4R-121" target="RSNTRJgo7_avWvgr4p4R-116">
          <mxGeometry relative="1" as="geometry">
            <mxPoint x="1877" y="2212" as="targetPoint" />
            <Array as="points">
              <mxPoint x="1920" y="2111" />
            </Array>
          </mxGeometry>
        </mxCell>
        <mxCell id="RSNTRJgo7_avWvgr4p4R-136" value="&lt;span style=&quot;font-size: 16px;&quot;&gt;Командировки&lt;br style=&quot;font-size: 16px;&quot;&gt;&lt;/span&gt;" style="text;html=1;align=center;verticalAlign=middle;resizable=0;points=[];autosize=1;strokeColor=none;fillColor=none;fontSize=16;" vertex="1" parent="1">
          <mxGeometry x="1790" y="2073" width="125" height="31" as="geometry" />
        </mxCell>
        <mxCell id="RSNTRJgo7_avWvgr4p4R-137" value="Сотрудник" style="rounded=0;whiteSpace=wrap;html=1;fontSize=16;" vertex="1" parent="1">
          <mxGeometry x="1972.5" y="2315" width="120" height="60" as="geometry" />
        </mxCell>
        <mxCell id="RSNTRJgo7_avWvgr4p4R-138" value="" style="swimlane;html=1;fontStyle=0;childLayout=stackLayout;horizontal=1;startSize=26;fillColor=#e0e0e0;horizontalStack=0;resizeParent=1;resizeLast=0;collapsible=1;marginBottom=0;swimlaneFillColor=#ffffff;align=center;rounded=1;shadow=0;comic=0;labelBackgroundColor=none;strokeWidth=1;fontFamily=Verdana;fontSize=16;" vertex="1" parent="1">
          <mxGeometry x="1586" y="2289" width="160" height="76" as="geometry" />
        </mxCell>
        <mxCell id="RSNTRJgo7_avWvgr4p4R-139" value="Просмотр рабочего&lt;br&gt;графика" style="text;html=1;strokeColor=none;fillColor=none;spacingLeft=4;spacingRight=4;whiteSpace=wrap;overflow=hidden;rotatable=0;points=[[0,0.5],[1,0.5]];portConstraint=eastwest;align=center;fontSize=16;" vertex="1" parent="RSNTRJgo7_avWvgr4p4R-138">
          <mxGeometry y="26" width="160" height="44" as="geometry" />
        </mxCell>
        <mxCell id="RSNTRJgo7_avWvgr4p4R-140" value="Рабочий график" style="html=1;dashed=0;whiteSpace=wrap;shape=mxgraph.dfd.dataStoreID;align=right;spacingLeft=3;points=[[0,0],[0.5,0],[1,0],[0,0.5],[1,0.5],[0,1],[0.5,1],[1,1]];fontSize=16;" vertex="1" parent="1">
          <mxGeometry x="1582" y="2444" width="142" height="30" as="geometry" />
        </mxCell>
        <mxCell id="RSNTRJgo7_avWvgr4p4R-141" style="edgeStyle=orthogonalEdgeStyle;rounded=0;orthogonalLoop=1;jettySize=auto;html=1;entryX=0.463;entryY=1.11;entryDx=0;entryDy=0;entryPerimeter=0;" edge="1" parent="1" source="RSNTRJgo7_avWvgr4p4R-140" target="RSNTRJgo7_avWvgr4p4R-139">
          <mxGeometry relative="1" as="geometry">
            <Array as="points">
              <mxPoint x="1653" y="2402" />
              <mxPoint x="1660" y="2402" />
            </Array>
          </mxGeometry>
        </mxCell>
        <mxCell id="RSNTRJgo7_avWvgr4p4R-142" value="&lt;span style=&quot;font-size: 16px;&quot;&gt;Рабочий график&lt;br style=&quot;font-size: 16px;&quot;&gt;&lt;/span&gt;" style="text;html=1;align=center;verticalAlign=middle;resizable=0;points=[];autosize=1;strokeColor=none;fillColor=none;fontSize=16;" vertex="1" parent="1">
          <mxGeometry x="1664" y="2392" width="138" height="31" as="geometry" />
        </mxCell>
        <mxCell id="RSNTRJgo7_avWvgr4p4R-143" style="edgeStyle=orthogonalEdgeStyle;rounded=0;orthogonalLoop=1;jettySize=auto;html=1;entryX=0;entryY=0.5;entryDx=0;entryDy=0;" edge="1" parent="1" source="RSNTRJgo7_avWvgr4p4R-139" target="RSNTRJgo7_avWvgr4p4R-137">
          <mxGeometry relative="1" as="geometry">
            <Array as="points">
              <mxPoint x="1818" y="2337" />
              <mxPoint x="1818" y="2335" />
            </Array>
          </mxGeometry>
        </mxCell>
        <mxCell id="RSNTRJgo7_avWvgr4p4R-145" value="&lt;span style=&quot;font-size: 16px;&quot;&gt;Рабочий график&lt;br style=&quot;font-size: 16px;&quot;&gt;&lt;/span&gt;" style="text;html=1;align=center;verticalAlign=middle;resizable=0;points=[];autosize=1;strokeColor=none;fillColor=none;fontSize=16;" vertex="1" parent="1">
          <mxGeometry x="1790" y="2296" width="138" height="31" as="geometry" />
        </mxCell>
      </root>
    </mxGraphModel>
  </diagram>
</mxfile>
